<?xml version="1.0" standalone="no"?>
<!DOCTYPE svg PUBLIC "-//W3C//DTD SVG 20010904//EN" "http://www.w3.org/TR/2001/REC-SVG-20010904/DTD/svg10.dtd">
<svg version="1.0" xmlns="http://www.w3.org/2000/svg" width="93.000000pt" height="93.000000pt" viewBox="0 0 93.000000 93.000000" preserveAspectRatio="xMidYMid meet">
<metadata>
Created by potrace 1.11, written by Peter Selinger 2001-2013
</metadata>
<g transform="translate(0.000000,93.000000) scale(0.100000,-0.100000)"
fill="#000000" stroke="none">
<path d="M320 811 c-8 -6 -18 -7 -22 -5 -4 3 -8 0 -8 -5 0 -6 -7 -11 -15 -11
-8 0 -15 -4 -15 -10 0 -5 -3 -9 -7 -8 -11 4 -83 -68 -83 -81 0 -6 -4 -11 -9
-11 -8 0 -24 -37 -22 -52 1 -5 -4 -8 -10 -8 -6 0 -9 -9 -6 -20 3 -11 1 -20 -4
-20 -5 0 -9 -13 -9 -30 0 -17 -5 -30 -12 -30 -10 0 -10 -2 -1 -8 6 -4 12 -25
14 -47 1 -22 7 -46 12 -52 5 -7 7 -13 3 -13 -3 0 3 -15 13 -34 22 -39 17 -51
-24 -54 -35 -3 -42 -9 -47 -41 -2 -19 -12 -27 -36 -33 -28 -8 -32 -11 -22 -23
7 -8 18 -15 25 -15 20 0 25 -26 10 -47 -24 -31 -19 -44 13 -32 28 11 68 21 90
22 6 0 12 5 12 11 0 6 5 4 10 -4 6 -10 10 -11 10 -2 0 6 7 12 15 12 8 0 12 6
9 14 -10 27 13 34 136 42 47 3 90 7 97 9 6 2 14 -1 17 -8 3 -8 5 -8 5 2 1 11
4 11 16 1 11 -9 15 -9 15 -1 0 7 3 10 8 8 4 -3 43 -8 86 -11 43 -3 86 -12 94
-18 13 -11 14 -11 8 0 -7 12 -4 12 13 2 19 -10 20 -14 9 -28 -11 -13 -11 -15
4 -9 9 3 18 1 20 -5 2 -6 22 -13 43 -15 22 -2 42 -8 45 -12 3 -5 13 -7 22 -5
10 1 20 -2 24 -7 3 -5 9 -9 14 -9 12 0 1 30 -17 48 -15 15 -18 36 -4 28 5 -3
11 1 15 9 3 8 15 15 26 15 11 0 20 5 20 11 0 5 -5 7 -10 4 -6 -3 -10 -1 -10 4
0 6 -11 11 -24 11 -25 0 -39 20 -30 44 5 13 -13 21 -76 33 -35 6 -44 18 -26
36 9 8 17 24 19 34 2 10 7 29 10 43 12 43 14 98 6 111 -4 8 -3 20 4 28 10 12
9 13 -2 6 -11 -6 -13 -4 -8 8 3 9 2 17 -4 19 -5 2 -11 14 -14 27 -6 32 -67
120 -82 121 -7 0 -13 5 -13 11 0 5 -4 7 -10 4 -5 -3 -10 -2 -10 3 0 5 -12 17
-26 27 -15 10 -23 12 -19 4 5 -7 -2 -5 -16 4 -18 13 -47 17 -134 17 -60 0
-117 -4 -125 -9z"/>
</g>
</svg>